<svg xmlns="http://www.w3.org/2000/svg" xmlns:xlink="http://www.w3.org/1999/xlink" preserveAspectRatio="xMidYMid" width="12.5" height="12.5" viewBox="0 0 25 25">
  <defs>
    <style>
      .cls-1 {
        stroke: #222;
        stroke-width: 1.5px;
        fill: none;
      }

      .cls-2 {
        fill: #222;
        fill-rule: evenodd;
      }
    </style>
  </defs>
  <g>
    <circle cx="12.5" cy="12.5" r="12" class="cls-1"/>
    <path d="M16.656,8.878 L12.767,12.767 L16.037,16.037 C16.232,16.232 16.232,16.549 16.037,16.744 C15.841,16.940 15.525,16.940 15.329,16.744 L12.059,13.474 L8.877,16.656 C8.681,16.851 8.366,16.851 8.170,16.656 C7.975,16.459 7.975,16.144 8.170,15.949 L11.352,12.767 L7.551,8.966 C7.356,8.770 7.356,8.454 7.551,8.259 C7.747,8.062 8.063,8.062 8.259,8.259 L12.059,12.059 L15.948,8.170 C16.144,7.975 16.460,7.975 16.656,8.170 C16.852,8.366 16.852,8.682 16.656,8.878 Z" class="cls-2"/>
  </g>
</svg>
