<svg 
 xmlns="http://www.w3.org/2000/svg"
 xmlns:xlink="http://www.w3.org/1999/xlink"
 width="10px" height="8px">
<g transform="scale(0.5)" ><path fill-rule="evenodd"  fill="rgb(140, 210, 110)"
 d="M6.797,15.148 C6.979,15.357 7.214,15.461 7.500,15.461 C7.786,15.461 8.021,15.357 8.203,15.148 L19.727,3.664 C19.909,3.482 20.000,3.247 20.000,2.961 C20.000,2.674 19.909,2.440 19.727,2.258 L18.281,0.852 C18.099,0.643 17.871,0.539 17.598,0.539 C17.324,0.539 17.083,0.643 16.875,0.852 L7.500,10.227 L3.125,5.852 C2.917,5.643 2.676,5.539 2.402,5.539 C2.129,5.539 1.901,5.643 1.719,5.852 L0.273,7.258 C0.091,7.440 0.000,7.674 0.000,7.961 C0.000,8.247 0.091,8.482 0.273,8.664 L6.797,15.148 Z"/>
</g></svg>